<svg id="Layer_1" data-name="Layer 1" xmlns="http://www.w3.org/2000/svg" viewBox="0 0 219 219"><defs><style>.cls-1,.cls-3,.cls-4{fill:#153057;}.cls-1,.cls-2,.cls-3,.cls-4{stroke:#000;stroke-miterlimit:10;}.cls-1{stroke-width:3px;}.cls-2{fill:#fff;stroke-width:5px;}.cls-4{stroke-width:0.25px;}</style></defs><circle class="cls-1" cx="109.5" cy="109.5" r="108"/><path class="cls-2" d="M19.5,161.5c1.1-1.76,5.54,0,11,0,1.84,0,4.58-.67,10-2,8.37-2.06,12.56-3.09,17-5,.4-.17,3.93-2.12,11-6,5.44-3,8.18-4.54,9-7a9,9,0,0,0-1-7c-1.59-2.53-4-3.34-6-4-2.41-.8-6.23-1.38-7,0-.37.65-.5.5,0,2,.58,1.73-4.25,2.31-7,2-3.28-.37-5.46-2.05-8-4-2.13-1.64-4.59-3.57-6-7a16.17,16.17,0,0,1-1-4c-.61-3.86.16-4.71,0-9-.2-5.48-1.5-5.35-1-9,.28-2.08.91-3.6,0-5-.73-1.13-1.62-.9-3-2-1.9-1.52-2.45-3.74-3-6-.59-2.43-1.19-4.88,0-7,.77-1.38,1.93-2,4-3,8.68-4.31,9.71-4.64,12-6a66.18,66.18,0,0,0,7-5c3.62-2.79,2.31-2.11,6-5,2.33-1.82,3.32-2.46,4-4,.77-1.75.23-2.61,1-4,1.12-2,3.62-2.67,5-3a109.92,109.92,0,0,1,21-3c19.48-.36,19.89-.52,23,0,5.11.86,14,3,14,3h3c3,0,5-1.58,10-3,4.24-1.21,6.27-1.07,7-1a9,9,0,0,1,4,1c1.71,1.07,3.15,3.54,3,15-.13,10.13-1.28,10.78,0,14,1.68,4.21,3.86,3.6,8,10,1.25,1.93,1.07,2,5,10,4.3,8.73,4.05,7.7,5,10a59.3,59.3,0,0,1,4,16c.39,3.69.13,4.71,0,12-.28,16.17.9,16.61,0,25-.81,7.55-1.6,5.67-3,16-1.06,7.81-1,11.73-4,16-1.55,2.2-3.36,3.7-7,6a102.15,102.15,0,0,1-24,11,104.14,104.14,0,0,1-24,5c-12.24,1-21.57-.65-29-2-6.89-1.25-13.6-2.46-22-6-10.36-4.36-17.2-9.7-24-15-3.59-2.8-.47-.65-15-14a37.39,37.39,0,0,1-9-14A2.43,2.43,0,0,1,19.5,161.5Z"/><circle class="cls-3" cx="55" cy="176" r="4.5"/><circle class="cls-3" cx="75.5" cy="166.5" r="6.5"/><circle class="cls-4" cx="81" cy="191" r="1.5"/><circle class="cls-3" cx="119.5" cy="125.5" r="3.5"/><circle class="cls-3" cx="100.5" cy="147.5" r="6.5"/><circle class="cls-3" cx="115.5" cy="159.5" r="4.5"/><circle class="cls-3" cx="102.5" cy="176.5" r="3.5"/><circle class="cls-3" cx="138.5" cy="147.5" r="3.5"/><circle class="cls-3" cx="152.5" cy="127.5" r="2.5"/><circle class="cls-3" cx="143.5" cy="171.5" r="3.5"/><circle class="cls-3" cx="126.5" cy="180.5" r="3.5"/><circle class="cls-3" cx="103.5" cy="192.5" r="3.5"/><circle class="cls-3" cx="99.5" cy="75.5" r="3.5"/><circle class="cls-3" cx="123.99" cy="64.05" r="5.95"/><circle class="cls-3" cx="112.99" cy="82.05" r="2.95"/><circle class="cls-3" cx="102.99" cy="110.05" r="4.95"/><circle class="cls-3" cx="123.99" cy="64.05" r="4.95"/><ellipse class="cls-3" cx="134.98" cy="98.94" rx="4.02" ry="4.06"/><ellipse class="cls-3" cx="142.48" cy="117.44" rx="3.52" ry="3.56"/><ellipse class="cls-3" cx="162.98" cy="105.94" rx="3.52" ry="3.56"/><circle class="cls-3" cx="159.5" cy="150.5" r="3.5"/><ellipse class="cls-3" cx="143.69" cy="75.58" rx="4.02" ry="4.06"/></svg>